<svg xmlns="http://www.w3.org/2000/svg" viewBox="495 240 280 310" role="img" aria-label="Padelia logo">
  <path fill="#6F2DBD" d="M 703.01 247.64 C703.00,247.69 703.00,247.74 703.00,247.80 C703.00,248.27 706.71,249.22 711.24,249.92 C735.16,253.58 751.86,264.10 760.61,281.02 L 764.48 288.50 L 764.42 302.50 C764.37,315.70 764.18,316.98 761.21,324.86 C757.38,335.03 751.54,345.84 744.11,356.50 C737.93,365.38 715.55,388.37 707.00,394.61 C665.58,424.88 626.56,441.59 576.50,450.50 C561.16,453.23 561.62,454.17 578.00,453.60 C590.72,453.15 602.51,451.67 610.14,449.55 C612.25,448.97 612.18,449.14 609.50,451.19 C603.07,456.11 585.33,472.39 558.59,497.88 C518.29,536.32 515.20,539.14 514.57,538.12 C514.26,537.61 514.87,532.77 515.92,527.35 C516.98,521.93 518.13,515.47 518.47,513.00 C518.82,510.52 519.94,504.00 520.97,498.50 C522.00,493.00 523.83,482.65 525.04,475.50 C526.25,468.35 527.82,459.35 528.53,455.50 C529.24,451.65 530.35,445.12 530.99,441.00 C531.64,436.88 533.00,429.23 534.01,424.00 C535.03,418.77 536.15,412.48 536.50,410.00 L 537.14 405.50 L 535.07 408.77 C534.41,409.83 533.81,410.97 533.43,411.90 C533.81,410.95 534.39,409.76 535.05,408.65 C536.10,406.86 536.56,405.44 536.30,404.82 C537.26,404.84 538.20,401.16 539.56,392.50 C540.50,386.45 542.00,378.39 542.89,374.60 L 544.50 367.70 L 551.50 364.00 C562.98,357.94 593.24,343.90 593.74,344.40 C593.99,344.66 593.50,348.16 592.64,352.18 C587.11,378.19 584.80,392.76 586.09,393.55 C587.48,394.41 606.90,389.35 616.99,385.50 C655.83,370.68 683.00,345.33 683.00,323.93 C683.00,315.79 680.58,311.56 674.03,308.25 C664.13,303.25 637.47,306.53 608.00,316.38 C595.42,320.58 591.27,322.15 576.25,328.39 C559.65,335.27 534.28,348.55 512.75,361.62 C512.15,361.99 511.57,362.33 511.02,362.67 C503.13,367.46 500.74,368.91 500.20,368.40 C499.97,368.18 500.08,367.60 500.24,366.76 C500.26,366.63 500.29,366.48 500.31,366.34 C501.95,357.28 505.34,338.70 507.50,326.91 C507.66,326.07 507.80,325.27 507.94,324.52 C509.70,315.00 510.25,312.02 509.45,311.60 C509.08,311.40 508.43,311.74 507.49,312.24 C507.33,312.33 507.15,312.42 506.97,312.52 C506.95,312.53 506.93,312.54 506.90,312.55 C510.00,310.92 511.32,307.60 510.26,304.23 C510.99,304.94 511.89,302.36 513.01,296.43 C514.29,289.68 513.49,290.39 525.00,285.78 C531.31,283.25 555.88,274.73 559.21,273.92 C561.24,273.42 564.39,272.36 566.21,271.57 C569.41,270.18 578.97,267.15 591.76,263.48 C595.20,262.49 597.77,261.44 597.48,261.15 C597.13,260.80 592.62,260.74 587.57,260.89 C589.24,260.81 591.01,260.74 592.87,260.69 L 599.24 260.50 L 599.36 258.78 C599.33,261.78 600.84,261.43 611.46,258.54 C625.49,254.72 637.32,252.31 651.68,250.35 C661.63,248.99 664.40,248.34 663.91,247.41 C665.38,248.43 669.35,248.05 670.58,246.70 C670.36,247.81 672.51,248.00 683.01,248.00 L 695.96 248.00 L 694.17 244.78 C696.06,247.81 700.73,249.21 703.01,247.64 Z"/>
</svg>